<mxfile host="app.diagrams.net" modified="2023-09-25T22:10:15.522Z" agent="Mozilla/5.0 (Windows NT 10.0; Win64; x64; rv:109.0) Gecko/20100101 Firefox/117.0" etag="a_WRqzX7IkT1ulibp5yX" version="21.8.1" type="device">
  <diagram name="Pagina-1" id="ZOOkR8ocmG20xqBdKAkR">
    <mxGraphModel dx="674" dy="1221" grid="1" gridSize="10" guides="1" tooltips="1" connect="1" arrows="1" fold="1" page="1" pageScale="1" pageWidth="827" pageHeight="1169" math="0" shadow="0">
      <root>
        <mxCell id="0" />
        <mxCell id="1" parent="0" />
        <mxCell id="Tzz4C_VLSnmZZS3b9AWu-11" style="rounded=0;orthogonalLoop=1;jettySize=auto;html=1;" parent="1" source="Tzz4C_VLSnmZZS3b9AWu-15" target="Tzz4C_VLSnmZZS3b9AWu-18" edge="1">
          <mxGeometry relative="1" as="geometry" />
        </mxCell>
        <mxCell id="Tzz4C_VLSnmZZS3b9AWu-67" value="shuffle_a" style="edgeLabel;html=1;align=center;verticalAlign=middle;resizable=0;points=[];" parent="Tzz4C_VLSnmZZS3b9AWu-11" vertex="1" connectable="0">
          <mxGeometry x="0.1794" y="-1" relative="1" as="geometry">
            <mxPoint x="-38" y="-4" as="offset" />
          </mxGeometry>
        </mxCell>
        <mxCell id="Tzz4C_VLSnmZZS3b9AWu-13" style="rounded=0;orthogonalLoop=1;jettySize=auto;html=1;" parent="1" source="Tzz4C_VLSnmZZS3b9AWu-15" target="Tzz4C_VLSnmZZS3b9AWu-21" edge="1">
          <mxGeometry relative="1" as="geometry" />
        </mxCell>
        <mxCell id="Tzz4C_VLSnmZZS3b9AWu-14" value="shuffle_b" style="edgeLabel;html=1;align=center;verticalAlign=middle;resizable=0;points=[];" parent="Tzz4C_VLSnmZZS3b9AWu-13" connectable="0" vertex="1">
          <mxGeometry x="-0.2116" y="2" relative="1" as="geometry">
            <mxPoint x="-22" y="17" as="offset" />
          </mxGeometry>
        </mxCell>
        <mxCell id="Tzz4C_VLSnmZZS3b9AWu-15" value="q0" style="ellipse;whiteSpace=wrap;html=1;aspect=fixed;" parent="1" vertex="1">
          <mxGeometry x="360" y="319" width="40" height="40" as="geometry" />
        </mxCell>
        <mxCell id="Tzz4C_VLSnmZZS3b9AWu-16" value="shuffle_b" style="rounded=0;orthogonalLoop=1;jettySize=auto;html=1;" parent="1" source="Tzz4C_VLSnmZZS3b9AWu-18" target="Tzz4C_VLSnmZZS3b9AWu-28" edge="1">
          <mxGeometry x="0.4055" y="28" relative="1" as="geometry">
            <mxPoint as="offset" />
          </mxGeometry>
        </mxCell>
        <mxCell id="Tzz4C_VLSnmZZS3b9AWu-18" value="q1" style="ellipse;whiteSpace=wrap;html=1;aspect=fixed;" parent="1" vertex="1">
          <mxGeometry x="440" y="240" width="40" height="40" as="geometry" />
        </mxCell>
        <mxCell id="Tzz4C_VLSnmZZS3b9AWu-19" style="rounded=0;orthogonalLoop=1;jettySize=auto;html=1;" parent="1" source="Tzz4C_VLSnmZZS3b9AWu-21" target="Tzz4C_VLSnmZZS3b9AWu-28" edge="1">
          <mxGeometry relative="1" as="geometry" />
        </mxCell>
        <mxCell id="Tzz4C_VLSnmZZS3b9AWu-21" value="q2" style="ellipse;whiteSpace=wrap;html=1;aspect=fixed;" parent="1" vertex="1">
          <mxGeometry x="440" y="400" width="40" height="40" as="geometry" />
        </mxCell>
        <mxCell id="Tzz4C_VLSnmZZS3b9AWu-26" style="edgeStyle=orthogonalEdgeStyle;rounded=0;orthogonalLoop=1;jettySize=auto;html=1;" parent="1" source="Tzz4C_VLSnmZZS3b9AWu-28" target="Tzz4C_VLSnmZZS3b9AWu-41" edge="1">
          <mxGeometry relative="1" as="geometry" />
        </mxCell>
        <mxCell id="Tzz4C_VLSnmZZS3b9AWu-63" value="send" style="edgeLabel;html=1;align=center;verticalAlign=middle;resizable=0;points=[];" parent="Tzz4C_VLSnmZZS3b9AWu-26" vertex="1" connectable="0">
          <mxGeometry x="0.1259" y="-3" relative="1" as="geometry">
            <mxPoint x="-8" y="-14" as="offset" />
          </mxGeometry>
        </mxCell>
        <mxCell id="Tzz4C_VLSnmZZS3b9AWu-28" value="q3" style="ellipse;whiteSpace=wrap;html=1;aspect=fixed;" parent="1" vertex="1">
          <mxGeometry x="520" y="319" width="40" height="40" as="geometry" />
        </mxCell>
        <mxCell id="gyZu50sfSamEQ1UALr1Y-2" style="edgeStyle=orthogonalEdgeStyle;rounded=0;orthogonalLoop=1;jettySize=auto;html=1;" edge="1" parent="1" source="Tzz4C_VLSnmZZS3b9AWu-37" target="Tzz4C_VLSnmZZS3b9AWu-38">
          <mxGeometry relative="1" as="geometry" />
        </mxCell>
        <mxCell id="gyZu50sfSamEQ1UALr1Y-3" value="sequence_a" style="edgeLabel;html=1;align=center;verticalAlign=middle;resizable=0;points=[];" vertex="1" connectable="0" parent="gyZu50sfSamEQ1UALr1Y-2">
          <mxGeometry x="0.3309" y="-2" relative="1" as="geometry">
            <mxPoint x="-14" y="-14" as="offset" />
          </mxGeometry>
        </mxCell>
        <mxCell id="Tzz4C_VLSnmZZS3b9AWu-37" value="q5" style="ellipse;whiteSpace=wrap;html=1;aspect=fixed;" parent="1" vertex="1">
          <mxGeometry x="760" y="318.95" width="40" height="40" as="geometry" />
        </mxCell>
        <mxCell id="Tzz4C_VLSnmZZS3b9AWu-49" style="edgeStyle=orthogonalEdgeStyle;rounded=0;orthogonalLoop=1;jettySize=auto;html=1;" parent="1" source="Tzz4C_VLSnmZZS3b9AWu-38" target="Tzz4C_VLSnmZZS3b9AWu-48" edge="1">
          <mxGeometry relative="1" as="geometry" />
        </mxCell>
        <mxCell id="Tzz4C_VLSnmZZS3b9AWu-62" value="sequence_b" style="edgeLabel;html=1;align=center;verticalAlign=middle;resizable=0;points=[];" parent="Tzz4C_VLSnmZZS3b9AWu-49" vertex="1" connectable="0">
          <mxGeometry x="0.2868" y="2" relative="1" as="geometry">
            <mxPoint x="-15" y="-10" as="offset" />
          </mxGeometry>
        </mxCell>
        <mxCell id="Tzz4C_VLSnmZZS3b9AWu-38" value="q6" style="ellipse;whiteSpace=wrap;html=1;aspect=fixed;" parent="1" vertex="1">
          <mxGeometry x="880" y="319" width="40" height="40" as="geometry" />
        </mxCell>
        <mxCell id="Tzz4C_VLSnmZZS3b9AWu-39" style="rounded=0;orthogonalLoop=1;jettySize=auto;html=1;" parent="1" source="Tzz4C_VLSnmZZS3b9AWu-41" target="Tzz4C_VLSnmZZS3b9AWu-37" edge="1">
          <mxGeometry relative="1" as="geometry">
            <Array as="points" />
          </mxGeometry>
        </mxCell>
        <mxCell id="gyZu50sfSamEQ1UALr1Y-1" value="&lt;div&gt;choice_a,&lt;/div&gt;&lt;div&gt;choice_b&lt;br&gt;&lt;/div&gt;" style="edgeLabel;html=1;align=center;verticalAlign=middle;resizable=0;points=[];" vertex="1" connectable="0" parent="Tzz4C_VLSnmZZS3b9AWu-39">
          <mxGeometry x="0.0357" y="-1" relative="1" as="geometry">
            <mxPoint x="-3" y="-20" as="offset" />
          </mxGeometry>
        </mxCell>
        <mxCell id="Tzz4C_VLSnmZZS3b9AWu-41" value="q4" style="ellipse;whiteSpace=wrap;html=1;aspect=fixed;" parent="1" vertex="1">
          <mxGeometry x="640" y="318.95" width="40" height="40" as="geometry" />
        </mxCell>
        <mxCell id="Tzz4C_VLSnmZZS3b9AWu-48" value="q7" style="ellipse;whiteSpace=wrap;html=1;aspect=fixed;" parent="1" vertex="1">
          <mxGeometry x="1000" y="319" width="40" height="40" as="geometry" />
        </mxCell>
        <mxCell id="Tzz4C_VLSnmZZS3b9AWu-64" value="shuffle_a" style="edgeLabel;html=1;align=center;verticalAlign=middle;resizable=0;points=[];" parent="1" connectable="0" vertex="1">
          <mxGeometry x="519.9991138305832" y="389.9969688783649" as="geometry" />
        </mxCell>
      </root>
    </mxGraphModel>
  </diagram>
</mxfile>
